<mxfile host="app.diagrams.net" agent="Mozilla/5.0 (Windows NT 10.0; Win64; x64) AppleWebKit/537.36 (KHTML, like Gecko) Chrome/130.0.0.0 Safari/537.36 Edg/130.0.0.0" version="24.8.3">
  <diagram name="Page-1" id="fjb2CtLeX8C8UQ3iuAO1">
    <mxGraphModel dx="933" dy="1035" grid="1" gridSize="10" guides="1" tooltips="1" connect="1" arrows="1" fold="1" page="1" pageScale="1" pageWidth="850" pageHeight="1100" math="0" shadow="0">
      <root>
        <mxCell id="0" />
        <mxCell id="1" parent="0" />
        <mxCell id="PSnEmTgQ8clI8SFjAode-15" style="edgeStyle=orthogonalEdgeStyle;rounded=0;orthogonalLoop=1;jettySize=auto;html=1;exitX=0.5;exitY=1;exitDx=0;exitDy=0;exitPerimeter=0;" edge="1" parent="1" source="PSnEmTgQ8clI8SFjAode-1" target="PSnEmTgQ8clI8SFjAode-2">
          <mxGeometry relative="1" as="geometry" />
        </mxCell>
        <mxCell id="PSnEmTgQ8clI8SFjAode-1" value="Start" style="strokeWidth=2;html=1;shape=mxgraph.flowchart.terminator;whiteSpace=wrap;" vertex="1" parent="1">
          <mxGeometry x="50" y="280" width="120" height="40" as="geometry" />
        </mxCell>
        <mxCell id="PSnEmTgQ8clI8SFjAode-32" value="" style="edgeStyle=orthogonalEdgeStyle;rounded=0;orthogonalLoop=1;jettySize=auto;html=1;" edge="1" parent="1" source="PSnEmTgQ8clI8SFjAode-2" target="PSnEmTgQ8clI8SFjAode-1">
          <mxGeometry relative="1" as="geometry" />
        </mxCell>
        <mxCell id="PSnEmTgQ8clI8SFjAode-2" value="Initialize Dogs with different Sizes" style="rounded=0;whiteSpace=wrap;html=1;" vertex="1" parent="1">
          <mxGeometry x="50" y="360" width="120" height="40" as="geometry" />
        </mxCell>
        <mxCell id="PSnEmTgQ8clI8SFjAode-10" style="edgeStyle=orthogonalEdgeStyle;rounded=0;orthogonalLoop=1;jettySize=auto;html=1;exitX=1;exitY=0.5;exitDx=0;exitDy=0;" edge="1" parent="1" source="PSnEmTgQ8clI8SFjAode-4" target="PSnEmTgQ8clI8SFjAode-5">
          <mxGeometry relative="1" as="geometry" />
        </mxCell>
        <mxCell id="PSnEmTgQ8clI8SFjAode-27" style="edgeStyle=orthogonalEdgeStyle;rounded=0;orthogonalLoop=1;jettySize=auto;html=1;exitX=0.5;exitY=1;exitDx=0;exitDy=0;entryX=0.5;entryY=0;entryDx=0;entryDy=0;" edge="1" parent="1" source="PSnEmTgQ8clI8SFjAode-4" target="PSnEmTgQ8clI8SFjAode-21">
          <mxGeometry relative="1" as="geometry" />
        </mxCell>
        <mxCell id="PSnEmTgQ8clI8SFjAode-4" value="SMALL?" style="rhombus;whiteSpace=wrap;html=1;" vertex="1" parent="1">
          <mxGeometry x="70" y="530" width="80" height="80" as="geometry" />
        </mxCell>
        <mxCell id="PSnEmTgQ8clI8SFjAode-11" style="edgeStyle=orthogonalEdgeStyle;rounded=0;orthogonalLoop=1;jettySize=auto;html=1;exitX=1;exitY=0.5;exitDx=0;exitDy=0;entryX=0;entryY=0.5;entryDx=0;entryDy=0;" edge="1" parent="1" source="PSnEmTgQ8clI8SFjAode-5" target="PSnEmTgQ8clI8SFjAode-6">
          <mxGeometry relative="1" as="geometry" />
        </mxCell>
        <mxCell id="PSnEmTgQ8clI8SFjAode-28" style="edgeStyle=orthogonalEdgeStyle;rounded=0;orthogonalLoop=1;jettySize=auto;html=1;exitX=0.5;exitY=1;exitDx=0;exitDy=0;entryX=0.5;entryY=0;entryDx=0;entryDy=0;" edge="1" parent="1" source="PSnEmTgQ8clI8SFjAode-5" target="PSnEmTgQ8clI8SFjAode-22">
          <mxGeometry relative="1" as="geometry" />
        </mxCell>
        <mxCell id="PSnEmTgQ8clI8SFjAode-5" value="MEDIUM?" style="rhombus;whiteSpace=wrap;html=1;strokeColor=default;align=center;verticalAlign=middle;fontFamily=Helvetica;fontSize=12;fontColor=default;fillColor=default;" vertex="1" parent="1">
          <mxGeometry x="200" y="530" width="80" height="80" as="geometry" />
        </mxCell>
        <mxCell id="PSnEmTgQ8clI8SFjAode-12" style="edgeStyle=orthogonalEdgeStyle;rounded=0;orthogonalLoop=1;jettySize=auto;html=1;exitX=1;exitY=0.5;exitDx=0;exitDy=0;entryX=0;entryY=0.5;entryDx=0;entryDy=0;" edge="1" parent="1" source="PSnEmTgQ8clI8SFjAode-6" target="PSnEmTgQ8clI8SFjAode-7">
          <mxGeometry relative="1" as="geometry" />
        </mxCell>
        <mxCell id="PSnEmTgQ8clI8SFjAode-29" style="edgeStyle=orthogonalEdgeStyle;rounded=0;orthogonalLoop=1;jettySize=auto;html=1;exitX=0.5;exitY=1;exitDx=0;exitDy=0;entryX=0.5;entryY=0;entryDx=0;entryDy=0;" edge="1" parent="1" source="PSnEmTgQ8clI8SFjAode-6" target="PSnEmTgQ8clI8SFjAode-23">
          <mxGeometry relative="1" as="geometry" />
        </mxCell>
        <mxCell id="PSnEmTgQ8clI8SFjAode-6" value="LARGE?" style="rhombus;whiteSpace=wrap;html=1;strokeColor=default;align=center;verticalAlign=middle;fontFamily=Helvetica;fontSize=12;fontColor=default;fillColor=default;" vertex="1" parent="1">
          <mxGeometry x="330" y="530" width="80" height="80" as="geometry" />
        </mxCell>
        <mxCell id="PSnEmTgQ8clI8SFjAode-13" style="edgeStyle=orthogonalEdgeStyle;rounded=0;orthogonalLoop=1;jettySize=auto;html=1;exitX=1;exitY=0.5;exitDx=0;exitDy=0;entryX=0;entryY=0.5;entryDx=0;entryDy=0;" edge="1" parent="1" source="PSnEmTgQ8clI8SFjAode-7" target="PSnEmTgQ8clI8SFjAode-8">
          <mxGeometry relative="1" as="geometry" />
        </mxCell>
        <mxCell id="PSnEmTgQ8clI8SFjAode-30" style="edgeStyle=orthogonalEdgeStyle;rounded=0;orthogonalLoop=1;jettySize=auto;html=1;exitX=0.5;exitY=1;exitDx=0;exitDy=0;entryX=0.5;entryY=0;entryDx=0;entryDy=0;" edge="1" parent="1" source="PSnEmTgQ8clI8SFjAode-7" target="PSnEmTgQ8clI8SFjAode-24">
          <mxGeometry relative="1" as="geometry" />
        </mxCell>
        <mxCell id="PSnEmTgQ8clI8SFjAode-7" value="XLARGE?" style="rhombus;whiteSpace=wrap;html=1;strokeColor=default;align=center;verticalAlign=middle;fontFamily=Helvetica;fontSize=12;fontColor=default;fillColor=default;" vertex="1" parent="1">
          <mxGeometry x="460" y="530" width="80" height="80" as="geometry" />
        </mxCell>
        <mxCell id="PSnEmTgQ8clI8SFjAode-31" style="edgeStyle=orthogonalEdgeStyle;rounded=0;orthogonalLoop=1;jettySize=auto;html=1;exitX=0.5;exitY=1;exitDx=0;exitDy=0;entryX=0.5;entryY=0;entryDx=0;entryDy=0;" edge="1" parent="1" source="PSnEmTgQ8clI8SFjAode-8" target="PSnEmTgQ8clI8SFjAode-25">
          <mxGeometry relative="1" as="geometry" />
        </mxCell>
        <mxCell id="PSnEmTgQ8clI8SFjAode-8" value="TINY?" style="rhombus;whiteSpace=wrap;html=1;strokeColor=default;align=center;verticalAlign=middle;fontFamily=Helvetica;fontSize=12;fontColor=default;fillColor=default;" vertex="1" parent="1">
          <mxGeometry x="590" y="530" width="80" height="80" as="geometry" />
        </mxCell>
        <mxCell id="PSnEmTgQ8clI8SFjAode-19" style="edgeStyle=orthogonalEdgeStyle;rounded=0;orthogonalLoop=1;jettySize=auto;html=1;exitX=0.5;exitY=1;exitDx=0;exitDy=0;" edge="1" parent="1" source="PSnEmTgQ8clI8SFjAode-18" target="PSnEmTgQ8clI8SFjAode-4">
          <mxGeometry relative="1" as="geometry" />
        </mxCell>
        <mxCell id="PSnEmTgQ8clI8SFjAode-18" value="Print descriptions of each dog with selectDogSize()" style="rounded=0;whiteSpace=wrap;html=1;" vertex="1" parent="1">
          <mxGeometry x="50" y="440" width="120" height="50" as="geometry" />
        </mxCell>
        <mxCell id="PSnEmTgQ8clI8SFjAode-21" value="Print &quot;I am&amp;nbsp;&lt;div&gt;a small doggy&quot;&lt;/div&gt;" style="shape=parallelogram;perimeter=parallelogramPerimeter;whiteSpace=wrap;html=1;fixedSize=1;" vertex="1" parent="1">
          <mxGeometry x="50" y="650" width="120" height="40" as="geometry" />
        </mxCell>
        <mxCell id="PSnEmTgQ8clI8SFjAode-35" style="edgeStyle=orthogonalEdgeStyle;rounded=0;orthogonalLoop=1;jettySize=auto;html=1;exitX=0.5;exitY=1;exitDx=0;exitDy=0;" edge="1" parent="1" source="PSnEmTgQ8clI8SFjAode-22">
          <mxGeometry relative="1" as="geometry">
            <mxPoint x="370" y="750" as="targetPoint" />
          </mxGeometry>
        </mxCell>
        <mxCell id="PSnEmTgQ8clI8SFjAode-22" value="Print &quot;I am&amp;nbsp;&lt;div&gt;a medium doggy&quot;&lt;/div&gt;" style="shape=parallelogram;perimeter=parallelogramPerimeter;whiteSpace=wrap;html=1;fixedSize=1;" vertex="1" parent="1">
          <mxGeometry x="180" y="650" width="120" height="40" as="geometry" />
        </mxCell>
        <mxCell id="PSnEmTgQ8clI8SFjAode-36" style="edgeStyle=orthogonalEdgeStyle;rounded=0;orthogonalLoop=1;jettySize=auto;html=1;exitX=0.5;exitY=1;exitDx=0;exitDy=0;" edge="1" parent="1" source="PSnEmTgQ8clI8SFjAode-23">
          <mxGeometry relative="1" as="geometry">
            <mxPoint x="370" y="750" as="targetPoint" />
          </mxGeometry>
        </mxCell>
        <mxCell id="PSnEmTgQ8clI8SFjAode-23" value="Print &quot;I am&amp;nbsp;&lt;div&gt;a large doggy&quot;&lt;/div&gt;" style="shape=parallelogram;perimeter=parallelogramPerimeter;whiteSpace=wrap;html=1;fixedSize=1;" vertex="1" parent="1">
          <mxGeometry x="310" y="650" width="120" height="40" as="geometry" />
        </mxCell>
        <mxCell id="PSnEmTgQ8clI8SFjAode-37" style="edgeStyle=orthogonalEdgeStyle;rounded=0;orthogonalLoop=1;jettySize=auto;html=1;exitX=0.5;exitY=1;exitDx=0;exitDy=0;" edge="1" parent="1" source="PSnEmTgQ8clI8SFjAode-24">
          <mxGeometry relative="1" as="geometry">
            <mxPoint x="370" y="750" as="targetPoint" />
          </mxGeometry>
        </mxCell>
        <mxCell id="PSnEmTgQ8clI8SFjAode-24" value="Print &quot;I am&amp;nbsp;&lt;span style=&quot;background-color: initial;&quot;&gt;an&amp;nbsp;&lt;/span&gt;&lt;div&gt;&lt;span style=&quot;background-color: initial;&quot;&gt;extra large doggy&quot;&lt;/span&gt;&lt;/div&gt;" style="shape=parallelogram;perimeter=parallelogramPerimeter;whiteSpace=wrap;html=1;fixedSize=1;" vertex="1" parent="1">
          <mxGeometry x="440" y="650" width="120" height="40" as="geometry" />
        </mxCell>
        <mxCell id="PSnEmTgQ8clI8SFjAode-38" style="edgeStyle=orthogonalEdgeStyle;rounded=0;orthogonalLoop=1;jettySize=auto;html=1;exitX=0.5;exitY=1;exitDx=0;exitDy=0;" edge="1" parent="1" source="PSnEmTgQ8clI8SFjAode-25">
          <mxGeometry relative="1" as="geometry">
            <mxPoint x="370" y="750" as="targetPoint" />
            <Array as="points">
              <mxPoint x="630" y="720" />
              <mxPoint x="371" y="720" />
              <mxPoint x="371" y="750" />
            </Array>
          </mxGeometry>
        </mxCell>
        <mxCell id="PSnEmTgQ8clI8SFjAode-25" value="Print &quot;I don&#39;t&amp;nbsp;&lt;div&gt;know which you&amp;nbsp;&lt;/div&gt;&lt;div&gt;like&lt;span style=&quot;background-color: initial;&quot;&gt;&quot;&lt;/span&gt;&lt;/div&gt;" style="shape=parallelogram;perimeter=parallelogramPerimeter;whiteSpace=wrap;html=1;fixedSize=1;" vertex="1" parent="1">
          <mxGeometry x="570" y="650" width="120" height="50" as="geometry" />
        </mxCell>
        <mxCell id="PSnEmTgQ8clI8SFjAode-33" value="End" style="strokeWidth=2;html=1;shape=mxgraph.flowchart.terminator;whiteSpace=wrap;" vertex="1" parent="1">
          <mxGeometry x="310" y="750" width="120" height="40" as="geometry" />
        </mxCell>
        <mxCell id="PSnEmTgQ8clI8SFjAode-34" style="edgeStyle=orthogonalEdgeStyle;rounded=0;orthogonalLoop=1;jettySize=auto;html=1;exitX=0.5;exitY=1;exitDx=0;exitDy=0;entryX=0.5;entryY=0;entryDx=0;entryDy=0;entryPerimeter=0;" edge="1" parent="1" source="PSnEmTgQ8clI8SFjAode-21" target="PSnEmTgQ8clI8SFjAode-33">
          <mxGeometry relative="1" as="geometry" />
        </mxCell>
      </root>
    </mxGraphModel>
  </diagram>
</mxfile>
